<svg width="111" height="29" viewBox="0 0 111 29" fill="none" xmlns="http://www.w3.org/2000/svg">
<path fill-rule="evenodd" clip-rule="evenodd" d="M96.4805 3.25521L88.2791 8.12164C87.783 8.04554 87.2753 8.00611 86.7586 8.00611C81.1176 8.00611 76.5447 12.7058 76.5447 18.5031C76.5447 24.3004 81.1176 29 86.7586 29C89.7269 29 92.3996 27.6987 94.2657 25.6208L105.628 18.8783C105.84 18.7523 105.913 18.4732 105.79 18.2549C105.668 18.0366 105.396 17.9618 105.184 18.0878L95.589 23.7816C96.4686 22.2309 96.9725 20.4274 96.9725 18.5031C96.9725 13.7081 93.8442 9.66411 89.5707 8.409L96.9246 4.04569C97.137 3.91967 97.2098 3.64054 97.0872 3.42226C96.9645 3.20397 96.6929 3.12918 96.4805 3.25521ZM86.7579 10.744C90.9273 10.744 94.3072 14.2177 94.3072 18.5026C94.3072 22.7876 90.9273 26.2612 86.7579 26.2612C82.5885 26.2612 79.2085 22.7876 79.2085 18.5026C79.2085 14.2177 82.5885 10.744 86.7579 10.744Z" fill="url(#paint0_linear_75_12871)"/>
<path d="M107.745 6.16133C107.623 5.94304 107.351 5.86825 107.139 5.99428L97.9085 11.4709C97.6961 11.597 97.6233 11.8761 97.7459 12.0944C97.8685 12.3127 98.1401 12.3875 98.3525 12.2614L107.583 6.78476C107.795 6.65874 107.868 6.37961 107.745 6.16133Z" fill="#8BF7FF"/>
<path d="M110.94 9.35605C110.818 9.13776 110.546 9.06297 110.334 9.189L98.7962 16.0348C98.5838 16.1609 98.5111 16.44 98.6337 16.6583C98.7563 16.8766 99.0279 16.9513 99.2403 16.8253L110.778 9.97949C110.99 9.85346 111.063 9.57434 110.94 9.35605Z" fill="#8BF7FF"/>
<path d="M109.1 0.228271C108.977 0.00998321 108.706 -0.0648076 108.493 0.0612207L82.3415 15.5784C82.1291 15.7045 82.0563 15.9836 82.1789 16.2019C82.3016 16.4202 82.5732 16.495 82.7856 16.3689L108.937 0.851709C109.15 0.725681 109.223 0.446558 109.1 0.228271Z" fill="#8BF7FF"/>
<path d="M18.7977 21.6252H18.1746L7.58139 3.76521H7.09674V3.72963H0V28.634H5.26197V10.774H5.85048L16.4783 28.634H24.0597V3.72963H18.7977V21.6252Z" fill="white"/>
<path d="M36.3927 8.31916C30.5076 8.31916 25.5918 11.6279 25.5918 18.4944C25.5918 25.3965 30.5076 28.634 36.3927 28.634C42.3124 28.634 47.2282 25.5032 47.2282 18.4944C47.2282 11.5567 42.3124 8.31916 36.3927 8.31916ZM36.3927 23.7243C33.104 23.7243 30.7499 22.23 30.7499 18.4944C30.7499 14.7231 33.104 13.2645 36.3927 13.2645C39.716 13.2645 42.0701 14.7943 42.0701 18.4944C42.0701 22.0877 39.716 23.7243 36.3927 23.7243Z" fill="white"/>
<path d="M67.9191 21.6252H67.296L56.7028 3.76521H56.2181V3.72963H49.1214V28.634H54.3834V10.774H54.9719L65.5997 28.634H73.1811V3.72963H67.9191V21.6252Z" fill="white"/>
<defs>
<linearGradient id="paint0_linear_75_12871" x1="111" y1="0" x2="0" y2="0" gradientUnits="userSpaceOnUse">
<stop offset="0.667369" stop-color="#86EAE9"/>
</linearGradient>
</defs>
</svg>
