<svg width="182" height="73" viewBox="0 0 182 73" fill="none" xmlns="http://www.w3.org/2000/svg">
<mask id="mask0_146_2738" style="mask-type:alpha" maskUnits="userSpaceOnUse" x="33" y="0" width="53" height="73">
<rect x="35" width="51" height="24" fill="black"/>
<rect x="35" y="49" width="51" height="24" fill="black"/>
<rect x="33" y="18" width="29" height="34" fill="black"/>
</mask>
<g mask="url(#mask0_146_2738)">
<circle cx="58" cy="36" r="19.5" stroke="#86EAE9"/>
</g>
<path d="M57.5358 35.8064C57.7444 35.8153 57.9584 35.8198 58.1777 35.8198C57.9773 35.8109 57.7623 35.8057 57.5358 35.8064Z" fill="white"/>
<path d="M49.9544 29C50.0762 32.1066 51.8914 35.8198 58.1777 35.8198C55.4366 35.698 49.9544 36.2751 49.9544 43" stroke="#86EAE9" stroke-width="1.1"/>
<path d="M58 36L-1.19209e-07 36" stroke="#86EAE9" stroke-width="1.1"/>
<path d="M69.978 35.436C69.978 36.486 69.908 38.068 68.27 38.068C66.786 38.068 66.674 36.836 66.674 36.444C66.352 36.444 65.61 36.444 64.378 36.444C64.378 37.27 64.574 40 68.27 40C72.022 40 72.176 37.2 72.176 35.31V30.214H69.978V35.436ZM77.2499 32.006C74.8699 32.006 72.8819 33.308 72.8819 36.01C72.8819 38.726 74.8699 40 77.2499 40C79.6439 40 81.6319 38.768 81.6319 36.01C81.6319 33.28 79.6439 32.006 77.2499 32.006ZM77.2499 38.068C75.9199 38.068 74.9679 37.48 74.9679 36.01C74.9679 34.526 75.9199 33.952 77.2499 33.952C78.5939 33.952 79.5459 34.554 79.5459 36.01C79.5459 37.424 78.5939 38.068 77.2499 38.068ZM84.3748 40V32.202H82.2608V40H84.3748ZM84.3748 31.642V29.738H82.2608V31.642H84.3748ZM89.9899 32.146C88.5759 32.146 87.8619 32.608 87.3579 33.308H87.2599V32.146H85.1319V40H87.2599V36.22C87.2599 35.156 87.5259 33.98 89.3739 33.98C91.4039 33.98 91.2779 35.464 91.2779 36.08V40H93.3919V36.08C93.3919 34.932 93.3079 32.146 89.9899 32.146ZM103.076 32.006C100.696 32.006 98.7081 33.308 98.7081 36.01C98.7081 38.726 100.696 40 103.076 40C105.47 40 107.458 38.768 107.458 36.01C107.458 33.28 105.47 32.006 103.076 32.006ZM103.076 38.068C101.746 38.068 100.794 37.48 100.794 36.01C100.794 34.526 101.746 33.952 103.076 33.952C104.42 33.952 105.372 34.554 105.372 36.01C105.372 37.424 104.42 38.068 103.076 38.068ZM114.164 32.146V35.94C114.164 37.004 113.884 38.18 112.05 38.18C110.006 38.18 110.146 36.696 110.146 36.08V32.146H108.032V36.08C108.032 37.228 108.116 40 111.434 40C112.848 40 113.562 39.552 114.066 38.852H114.164V40H116.292V32.146H114.164ZM121.592 32.146C120.234 32.146 119.758 32.552 119.31 33.308H119.184V32.146H117.056V40H119.184V36.486C119.184 35.422 119.646 34.19 121.228 34.19C121.9 34.19 122.446 34.302 122.642 34.358L122.978 32.356C122.614 32.272 122.152 32.146 121.592 32.146ZM134.958 29.892V33.308H134.832C134.3 32.608 133.418 32.146 131.962 32.146C128.644 32.146 128.294 34.932 128.294 36.08C128.294 37.13 128.658 40 131.948 40C133.432 40 134.328 39.594 134.86 38.908H134.958V40H137.086V29.892H134.958ZM132.578 38.18C130.548 38.18 130.324 36.64 130.324 36.08C130.324 35.464 130.534 33.98 132.578 33.98C134.412 33.98 134.79 35.016 134.79 36.08C134.79 37.27 134.412 38.18 132.578 38.18ZM139.965 40V32.202H137.851V40H139.965ZM139.965 31.642V29.738H137.851V31.642H139.965ZM144.62 35.24L144.438 35.226C143.066 35.016 142.828 34.82 142.828 34.47C142.828 34.232 143.08 33.798 144.27 33.798C145.502 33.798 146.034 34.134 146.034 34.75V34.82H148.204V34.75C148.204 33.546 147.518 32.104 144.27 32.104C141.246 32.104 140.616 33.406 140.616 34.498C140.616 36.066 142.016 36.57 144.27 36.864C144.382 36.878 144.494 36.892 144.606 36.906C145.46 37.004 146.216 37.116 146.216 37.704C146.216 38.222 145.404 38.334 144.55 38.334C143.136 38.334 142.632 38.026 142.632 37.354V37.284H140.448V37.438C140.434 37.844 140.434 38.502 140.98 39.048C141.61 39.678 142.828 40 144.606 40C147.014 40 148.414 39.622 148.414 37.676C148.414 35.814 146.398 35.506 144.62 35.24ZM154.88 37.06C154.726 37.606 154.236 38.096 152.892 38.096C151.506 38.096 150.778 37.466 150.778 36.066C150.778 34.736 151.506 34.05 152.892 34.05C154.194 34.05 154.712 34.498 154.894 35.086H156.98C156.798 33.224 155.146 32.132 152.892 32.132C150.582 32.132 148.706 33.532 148.706 36.066C148.706 38.67 150.582 40 152.892 40C155.146 40 156.812 38.95 156.98 37.06H154.88ZM161.674 32.006C159.294 32.006 157.306 33.308 157.306 36.01C157.306 38.726 159.294 40 161.674 40C164.068 40 166.056 38.768 166.056 36.01C166.056 33.28 164.068 32.006 161.674 32.006ZM161.674 38.068C160.344 38.068 159.392 37.48 159.392 36.01C159.392 34.526 160.344 33.952 161.674 33.952C163.018 33.952 163.97 34.554 163.97 36.01C163.97 37.424 163.018 38.068 161.674 38.068ZM171.289 32.146C169.931 32.146 169.455 32.552 169.007 33.308H168.881V32.146H166.753V40H168.881V36.486C168.881 35.422 169.343 34.19 170.925 34.19C171.597 34.19 172.143 34.302 172.339 34.358L172.675 32.356C172.311 32.272 171.849 32.146 171.289 32.146ZM179.022 29.892V33.308H178.896C178.364 32.608 177.482 32.146 176.026 32.146C172.708 32.146 172.358 34.932 172.358 36.08C172.358 37.13 172.722 40 176.012 40C177.496 40 178.392 39.594 178.924 38.908H179.022V40H181.15V29.892H179.022ZM176.642 38.18C174.612 38.18 174.388 36.64 174.388 36.08C174.388 35.464 174.598 33.98 176.642 33.98C178.476 33.98 178.854 35.016 178.854 36.08C178.854 37.27 178.476 38.18 176.642 38.18Z" fill="#86EAE9"/>
</svg>
