<svg width="150" height="58" viewBox="0 0 150 58" fill="none" xmlns="http://www.w3.org/2000/svg">
<mask id="mask0_146_2721" style="mask-type:alpha" maskUnits="userSpaceOnUse" x="37" y="0" width="53" height="58">
<rect x="37" y="1" width="24" height="57" fill="#C4C4C4"/>
<rect x="53" width="33" height="20" fill="#C4C4C4"/>
<rect x="56" y="43" width="34" height="15" fill="#C4C4C4"/>
</mask>
<g mask="url(#mask0_146_2721)">
<circle cx="58" cy="32" r="19.5" stroke="#86EAE9"/>
</g>
<path d="M57.5358 31.8064C57.7444 31.8153 57.9584 31.8198 58.1777 31.8198C57.9773 31.8109 57.7623 31.8057 57.5358 31.8064Z" fill="white"/>
<path d="M49.9544 25C50.0762 28.1066 51.8914 31.8198 58.1777 31.8198C55.4366 31.698 49.9544 32.2751 49.9544 39" stroke="#86EAE9" stroke-width="1.1"/>
<path d="M58 32L-1.19209e-07 32" stroke="#86EAE9" stroke-width="1.1"/>
<path d="M66.506 26.2H64.378V36H72.428V34.082H66.506V26.2ZM81.2256 32.57H81.3096C81.4216 31.492 81.2816 29.84 79.7696 28.804V28.818C79.1116 28.356 78.2156 28.076 77.1096 28.076C74.4636 28.076 72.8956 29.476 72.8956 32.038C72.8956 34.656 74.4216 36 77.1096 36C79.6856 36 81.0576 34.964 81.2676 33.27H79.2096C79.0136 33.788 78.3836 34.138 77.1096 34.138C75.7376 34.138 75.1076 33.62 74.9536 32.57H81.2256ZM77.1096 29.938C78.6216 29.938 79.0136 30.582 79.1816 31.17H75.0376C75.2896 30.372 75.9336 29.938 77.1096 29.938ZM88.3747 29.308C87.8427 28.608 86.9607 28.146 85.5047 28.146C82.1867 28.146 81.8367 30.932 81.8367 32.08C81.8367 33.13 82.2007 36 85.4907 36C86.9747 36 87.8707 35.594 88.4027 34.908H88.4727V36H90.6007V28.146H88.4727V29.308H88.3747ZM86.1207 34.18C84.0907 34.18 83.8667 32.64 83.8667 32.08C83.8667 31.464 84.0767 29.98 86.1207 29.98C87.9547 29.98 88.3327 31.016 88.3327 32.08C88.3327 33.27 87.9547 34.18 86.1207 34.18ZM95.916 28.146C94.558 28.146 94.082 28.552 93.634 29.308H93.508V28.146H91.38V36H93.508V32.486C93.508 31.422 93.97 30.19 95.552 30.19C96.224 30.19 96.77 30.302 96.966 30.358L97.302 28.356C96.938 28.272 96.476 28.146 95.916 28.146ZM102.609 28.146C101.195 28.146 100.481 28.608 99.977 29.308H99.879V28.146H97.751V36H99.879V32.22C99.879 31.156 100.145 29.98 101.993 29.98C104.023 29.98 103.897 31.464 103.897 32.08V36H106.011V32.08C106.011 30.932 105.927 28.146 102.609 28.146ZM122.009 28.146C120.049 28.146 119.419 28.608 118.901 29.308H118.803C118.355 28.65 117.557 28.146 116.143 28.146C114.743 28.146 114.043 28.608 113.539 29.308H113.441V28.216H111.327V36H113.441V32.22C113.441 31.156 113.567 29.98 115.401 29.98C117.333 29.98 117.305 31.464 117.305 32.08V36H119.419V32.178L119.433 32.22C119.433 31.156 119.559 29.98 121.393 29.98C123.325 29.98 123.297 31.464 123.297 32.08V36H125.425V32.08C125.411 30.932 125.327 28.146 122.009 28.146ZM130.297 28.006C127.917 28.006 125.929 29.308 125.929 32.01C125.929 34.726 127.917 36 130.297 36C132.691 36 134.679 34.768 134.679 32.01C134.679 29.28 132.691 28.006 130.297 28.006ZM130.297 34.068C128.967 34.068 128.015 33.48 128.015 32.01C128.015 30.526 128.967 29.952 130.297 29.952C131.641 29.952 132.593 30.554 132.593 32.01C132.593 33.424 131.641 34.068 130.297 34.068ZM139.912 28.146C138.554 28.146 138.078 28.552 137.63 29.308H137.504V28.146H135.376V36H137.504V32.486C137.504 31.422 137.966 30.19 139.548 30.19C140.22 30.19 140.766 30.302 140.962 30.358L141.298 28.356C140.934 28.272 140.472 28.146 139.912 28.146ZM149.448 32.57H149.532C149.644 31.492 149.504 29.84 147.992 28.804V28.818C147.334 28.356 146.438 28.076 145.332 28.076C142.686 28.076 141.118 29.476 141.118 32.038C141.118 34.656 142.644 36 145.332 36C147.908 36 149.28 34.964 149.49 33.27H147.432C147.236 33.788 146.606 34.138 145.332 34.138C143.96 34.138 143.33 33.62 143.176 32.57H149.448ZM145.332 29.938C146.844 29.938 147.236 30.582 147.404 31.17H143.26C143.512 30.372 144.156 29.938 145.332 29.938Z" fill="#86EAE9"/>
</svg>
